PathFileType	4	(X/Y/Z)	/Users/itak/Documents/Research/Walk-IL/dataset/trc/00100_00007.trc
DataRate	CameraRate	NumFrames	NumMarkers	Units	OrigDataRate	OrigDataStartFrame	OrigNumFrames
100.000000	100.000000	4	53	mm	100.000000	0	528
Frame#	Time	RPSI			LPSI			L3			STRN			T10			C7			CLAV			RBAK			LBAK			LSHO			LUPA			LAEL			LAOL			LWTS			LWPS			LFRA			LIFD			LHPS			LHTS			RSHO			RUPA			RAEL			RAOL			RWTS			RWPS			RFRA			RIFD			RHTS			RHPS			RBHD			LFHD			RFHD			LBHD			LHIP			RHIP			RASI			LASI			LKNE			LTHI			LANK			LTIP			LTOE			LMT1			LMT5			LHEE			RKNE			RTHI			RANK			RTIP			RTOE			RMT1			RMT5			RHEE			
		X1	Y1	Z1	X2	Y2	Z2	X3	Y3	Z3	X4	Y4	Z4	X5	Y5	Z5	X6	Y6	Z6	X7	Y7	Z7	X8	Y8	Z8	X9	Y9	Z9	X10	Y10	Z10	X11	Y11	Z11	X12	Y12	Z12	X13	Y13	Z13	X14	Y14	Z14	X15	Y15	Z15	X16	Y16	Z16	X17	Y17	Z17	X18	Y18	Z18	X19	Y19	Z19	X20	Y20	Z20	X21	Y21	Z21	X22	Y22	Z22	X23	Y23	Z23	X24	Y24	Z24	X25	Y25	Z25	X26	Y26	Z26	X27	Y27	Z27	X28	Y28	Z28	X29	Y29	Z29	X30	Y30	Z30	X31	Y31	Z31	X32	Y32	Z32	X33	Y33	Z33	X34	Y34	Z34	X35	Y35	Z35	X36	Y36	Z36	X37	Y37	Z37	X38	Y38	Z38	X39	Y39	Z39	X40	Y40	Z40	X41	Y41	Z41	X42	Y42	Z42	X43	Y43	Z43	X44	Y44	Z44	X45	Y45	Z45	X46	Y46	Z46	X47	Y47	Z47	X48	Y48	Z48	X49	Y49	Z49	X50	Y50	Z50	X51	Y51	Z51	X52	Y52	Z52	X53	Y53	Z53	

1	0	-1951.053344726562	1125.603759765625	-277.1863403320312	-1952.62646484375	1127.07275390625	-411.7987365722656	-1959.8271484375	1159.033813476562	-347.2790832519531	-1743.308471679688	1363.7490234375	-347.5661315917969	-1999.261352539062	1309.4189453125	-347.2330017089844	-1964.988037109375	1602.699951171875	-363.3607177734375	-1778.055419921875	1500.13671875	-351.7619323730469	-2019.840087890625	1418.3984375	-274.4390258789062	-1970.704711914062	1584.090942382812	-464.9827575683594	-1882.754028320312	1572.393310546875	-532.0785522460938	-1902.623291015625	1440.88720703125	-603.3418579101562	-1888.775268554688	1222.422973632812	-628.0009155273438	-1953.625854492188	1207.916748046875	-570.0877685546875	-1778.0224609375	969.3330078125	-590.03857421875	-1859.4140625	940.5062866210938	-614.2476196289062	-1869.360473632812	1107.162475585938	-633.4208374023438	-1759.917724609375	776.4570922851562	-568.7699584960938	-1826.20703125	866.9917602539062	-616.3809204101562	-1759.385375976562	880.7553100585938	-601.8883056640625	-1913.00537109375	1587.62939453125	-181.4869384765625	-1930.5732421875	1515.438720703125	-116.9461898803711	-1937.148071289062	1220.7548828125	-90.10918426513672	-1942.828369140625	1217.538330078125	-187.2466125488281	-1781.685668945312	983.1409301757812	-99.23519897460938	-1857.492797851562	964.1624145507812	-66.72251892089844	-1911.33056640625	1148.323120117188	-73.08451843261719	-1751.384521484375	788.8491821289062	-113.5837249755859	-1749.3974609375	875.4314575195312	-92.12033843994141	-1816.884399414062	866.0335693359375	-61.34743118286133	-1947.973266601562	1766.42236328125	-290.6491088867188	-1782.062133789062	1850.41357421875	-410.4350891113281	-1794.0986328125	1856.761352539062	-281.5191040039062	-1943.354370117188	1763.415283203125	-426.6792602539062	-1859.53662109375	1038.914794921875	-518.9517822265625	-1822.729370117188	1031.549438476562	-161.6351318359375	-1741.7373046875	1106.317504882812	-213.8491363525391	-1752.824462890625	1105.231567382812	-480.5899047851562	-1831.695556640625	536.673095703125	-484.0948791503906	-1852.420776367188	682.8472290039062	-513.4453735351562	-1942.77783203125	36.99144744873047	-469.6632080078125	-1931.962768554688	289.9152221679688	-506.4241333007812	-1712.663940429688	36.91070938110352	-407.1563110351562	-1794.695556640625	41.11358642578125	-375.4872436523438	-1816.485473632812	33.32900619506836	-493.5419311523438	-2012.091552734375	36.92162704467773	-407.18896484375	-1828.004516601562	539.1096801757812	-192.4220733642578	-1802.9501953125	819.239013671875	-165.7061157226562	-1935.773803710938	29.28686141967773	-204.5413818359375	-1855.633422851562	405.2517700195312	-179.5230102539062	-1704.895874023438	41.14811706542969	-255.330322265625	-1764.689819335938	29.66584777832031	-299.0341186523438	-1802.54833984375	36.96113967895508	-182.7845611572266	-1993.044555664062	31.29664039611816	-252.7649841308594	
2	0.01	-1951.071655273438	1125.588623046875	-277.2035522460938	-1952.627563476562	1127.0498046875	-411.8184204101562	-1959.8447265625	1159.032348632812	-347.300048828125	-1743.274291992188	1363.727661132812	-347.5893249511719	-1999.240234375	1309.445434570312	-347.2518920898438	-1964.906860351562	1602.741333007812	-363.4334106445312	-1777.939086914062	1500.141723632812	-351.8121337890625	-2019.771484375	1418.486206054688	-274.4382019042969	-1970.600952148438	1584.107055664062	-465.024658203125	-1882.569702148438	1572.335815429688	-532.0741577148438	-1902.564819335938	1440.868896484375	-603.3641357421875	-1888.700927734375	1222.401733398438	-628.0147705078125	-1953.572143554688	1207.911865234375	-570.1121215820312	-1778.01171875	969.3096923828125	-590.0178833007812	-1859.392333984375	940.4905395507812	-614.2359619140625	-1869.30224609375	1107.139282226562	-633.41455078125	-1759.944091796875	776.4363403320312	-568.7627563476562	-1826.185913085938	866.9625244140625	-616.3606567382812	-1759.380981445312	880.7241821289062	-601.8571166992188	-1912.852905273438	1587.69189453125	-181.5348815917969	-1930.443359375	1515.498901367188	-116.9687271118164	-1937.042236328125	1220.84765625	-90.08536529541016	-1942.72900390625	1217.610229492188	-187.1854095458984	-1781.614624023438	983.1978759765625	-99.276611328125	-1857.372192382812	964.2346801757812	-66.71804809570312	-1911.228393554688	1148.422241210938	-73.06556701660156	-1751.343017578125	788.9608764648438	-113.6035537719727	-1749.317260742188	875.4601440429688	-92.17855834960938	-1816.7939453125	866.105224609375	-61.36502075195312	-1947.752563476562	1766.4111328125	-290.6318664550781	-1781.9560546875	1850.377197265625	-410.5408325195312	-1793.917724609375	1856.723022460938	-281.5794372558594	-1943.23291015625	1763.384765625	-426.6585998535156	-1859.514038085938	1038.903198242188	-518.9491577148438	-1822.754150390625	1031.546630859375	-161.6271514892578	-1741.768676757812	1106.314575195312	-213.8403472900391	-1752.805541992188	1105.215942382812	-480.5914916992188	-1831.653930664062	536.66796875	-484.09228515625	-1852.381713867188	682.85107421875	-513.4429931640625	-1942.77685546875	36.9897346496582	-469.6641235351562	-1931.931518554688	289.9185485839844	-506.4233093261719	-1712.661010742188	36.91090393066406	-407.1534729003906	-1794.703125	41.12148284912109	-375.4879760742188	-1816.482299804688	33.33394241333008	-493.5363159179688	-2012.09130859375	36.92194747924805	-407.188720703125	-1827.990844726562	539.1134033203125	-192.4236145019531	-1802.948486328125	819.2477416992188	-165.7041320800781	-1935.7802734375	29.28703498840332	-204.5507049560547	-1855.624389648438	405.2593688964844	-179.5402374267578	-1704.890991210938	41.150146484375	-255.3266906738281	-1764.686889648438	29.6668872833252	-299.0328369140625	-1802.5341796875	36.96194076538086	-182.7804412841797	-1993.046630859375	31.29878997802734	-252.7680816650391	
3	0.02	-1951.093627929688	1125.571533203125	-277.2241516113281	-1952.628540039062	1127.02392578125	-411.8421325683594	-1959.864868164062	1159.032592773438	-347.3260192871094	-1743.228515625	1363.7021484375	-347.6177673339844	-1999.213256835938	1309.477416992188	-347.2738342285156	-1964.804443359375	1602.790161132812	-363.5225219726562	-1777.804931640625	1500.14599609375	-351.8734741210938	-2019.688110351562	1418.594360351562	-274.4353942871094	-1970.474975585938	1584.125122070312	-465.0734558105469	-1882.36572265625	1572.278198242188	-532.0828857421875	-1902.486938476562	1440.844970703125	-603.3916625976562	-1888.6103515625	1222.371948242188	-628.0283813476562	-1953.50830078125	1207.90380859375	-570.1373901367188	-1777.999755859375	969.2770385742188	-589.989990234375	-1859.371826171875	940.4688110351562	-614.2189331054688	-1869.232666015625	1107.107788085938	-633.4041748046875	-1759.975219726562	776.4071655273438	-568.7521362304688	-1826.1650390625	866.9240112304688	-616.3336181640625	-1759.381225585938	880.6776733398438	-601.8169555664062	-1912.672119140625	1587.766479492188	-181.5930633544922	-1930.276245117188	1515.573974609375	-116.9934387207031	-1936.9150390625	1220.96044921875	-90.05450439453125	-1942.616333007812	1217.695434570312	-187.1147766113281	-1781.52734375	983.2705688476562	-99.32406616210938	-1857.222290039062	964.32470703125	-66.71086120605469	-1911.107421875	1148.5380859375	-73.04480743408203	-1751.271118164062	789.0864868164062	-113.6250762939453	-1749.232543945312	875.4985961914062	-92.241455078125	-1816.673461914062	866.1961669921875	-61.37582397460938	-1947.486450195312	1766.402099609375	-290.6195678710938	-1781.814208984375	1850.324584960938	-410.6761474609375	-1793.676391601562	1856.673095703125	-281.6595764160156	-1943.0703125	1763.349731445312	-426.6315612792969	-1859.485595703125	1038.889770507812	-518.9459228515625	-1822.785400390625	1031.544189453125	-161.6194915771484	-1741.804809570312	1106.310302734375	-213.8295135498047	-1752.7822265625	1105.19580078125	-480.5926513671875	-1831.604125976562	536.6614379882812	-484.0881042480469	-1852.335205078125	682.8546752929688	-513.439453125	-1942.776000976562	36.9885139465332	-469.6647338867188	-1931.897216796875	289.9230041503906	-506.4253540039062	-1712.658325195312	36.91069793701172	-407.1506652832031	-1794.70849609375	41.12801742553711	-375.4883728027344	-1816.477905273438	33.34006118774414	-493.5296630859375	-2012.090942382812	36.92274856567383	-407.1881103515625	-1827.974365234375	539.1190795898438	-192.4277191162109	-1802.948120117188	819.2587890625	-165.7024688720703	-1935.785888671875	29.28636932373047	-204.5604553222656	-1855.61572265625	405.2689514160156	-179.5609588623047	-1704.886962890625	41.15164566040039	-255.3231201171875	-1764.682739257812	29.66832160949707	-299.0311584472656	-1802.5224609375	36.96072769165039	-182.7766418457031	-1993.049072265625	31.29810523986816	-252.7712860107422	
4	0.03	-1951.117553710938	1125.553955078125	-277.2469482421875	-1952.628784179688	1126.997680664062	-411.8684997558594	-1959.885864257812	1159.035400390625	-347.3561401367188	-1743.171875	1363.674438476562	-347.6501770019531	-1999.181030273438	1309.513427734375	-347.2975463867188	-1964.684204101562	1602.842651367188	-363.6230163574219	-1777.663818359375	1500.148193359375	-351.9430847167969	-2019.595581054688	1418.716918945312	-274.4303283691406	-1970.333251953125	1584.143310546875	-465.1255187988281	-1882.160400390625	1572.2275390625	-532.1088256835938	-1902.390502929688	1440.816162109375	-603.4234619140625	-1888.508056640625	1222.333618164062	-628.0399780273438	-1953.438232421875	1207.892211914062	-570.1605224609375	-1777.988647460938	969.2348022460938	-589.9551391601562	-1859.3564453125	940.4409790039062	-614.19580078125	-1869.15625	1107.068481445312	-633.3893432617188	-1760.008666992188	776.3690185546875	-568.7352905273438	-1826.148315429688	866.8773803710938	-616.2996826171875	-1759.388549804688	880.6143188476562	-601.7677612304688	-1912.474731445312	1587.848388671875	-181.6580963134766	-1930.0771484375	1515.660888671875	-117.0177612304688	-1936.774169921875	1221.086547851562	-90.01771545410156	-1942.500366210938	1217.789184570312	-187.0405883789062	-1781.428466796875	983.357177734375	-99.37334442138672	-1857.05029296875	964.4283447265625	-66.70040130615234	-1910.974609375	1148.662109375	-73.02434539794922	-1751.168579101562	789.2163696289062	-113.6457290649414	-1749.1494140625	875.5466918945312	-92.30323791503906	-1816.526000976562	866.3031616210938	-61.37470245361328	-1947.190551757812	1766.398071289062	-290.6174011230469	-1781.637817382812	1850.25537109375	-410.8368835449219	-1793.376098632812	1856.612670898438	-281.7597045898438	-1942.870361328125	1763.314575195312	-426.5999450683594	-1859.452514648438	1038.8759765625	-518.9425048828125	-1822.821044921875	1031.542724609375	-161.6135711669922	-1741.842407226562	1106.3046875	-213.8171844482422	-1752.755737304688	1105.171508789062	-480.5935668945312	-1831.55078125	536.6541748046875	-484.0823669433594	-1852.284057617188	682.857177734375	-513.4346313476562	-1942.775390625	36.98796844482422	-469.6649475097656	-1931.86279296875	289.9280700683594	-506.4309997558594	-1712.65625	36.90975570678711	-407.148193359375	-1794.710205078125	41.1319694519043	-375.4884643554688	-1816.47265625	33.34686660766602	-493.5230712890625	-2012.090209960938	36.92422866821289	-407.18701171875	-1827.95654296875	539.12646484375	-192.4348602294922	-1802.946655273438	819.271728515625	-165.7010498046875	-1935.790161132812	29.28443145751953	-204.5704956054688	-1855.609252929688	405.2797241210938	-179.5842895507812	-1704.885009765625	41.1520881652832	-255.3198699951172	-1764.677978515625	29.6700611114502	-299.029296875	-1802.5146484375	36.95745849609375	-182.7733917236328	-1993.052124023438	31.29439353942871	-252.7748260498047	
